<svg version="1.1" id="Layer_1" xmlns="http://www.w3.org/2000/svg" xmlns:xlink="http://www.w3.org/1999/xlink" x="0px" y="0px"
	 width="100%" viewBox="0 0 848 848" enable-background="new 0 0 848 848" xml:space="preserve">
<path fill="#000000" opacity="1.000000" stroke="none" 
	d="
M467.180664,527.397339 
	C403.226318,547.604553 335.201233,505.197205 325.589233,439.469971 
	C316.746887,379.005615 354.885773,324.939728 414.991241,314.171753 
	C472.952698,303.787811 531.843689,342.814606 542.271057,403.841034 
	C551.508057,457.900970 520.559631,508.837860 467.180664,527.397339 
M457.730896,515.209106 
	C503.604553,503.163574 534.250305,458.578217 528.855774,411.732025 
	C523.413574,364.472076 482.814850,327.016663 435.447357,326.515381 
	C405.250671,326.195770 380.094330,338.120331 360.604218,361.297241 
	C331.991364,395.322510 330.864929,446.289276 358.632263,480.837463 
	C384.043579,512.454285 417.184479,523.764587 457.730896,515.209106 
z"/>
<path fill="#000000" opacity="1.000000" stroke="none" 
	d="
M404.554474,533.405457 
	C429.270294,537.345398 453.386444,536.949890 477.170197,530.160889 
	C508.488220,521.221313 536.601074,506.019318 562.289551,486.168793 
	C567.031006,482.504883 571.650452,478.683197 576.349304,474.963531 
	C576.710632,474.677460 577.256287,474.624176 577.980347,474.370026 
	C580.261780,477.693695 578.632019,481.459564 579.268616,484.882629 
	C580.738403,492.785828 577.230774,497.563934 570.873779,502.140320 
	C543.210999,522.054688 513.841553,538.364258 480.719482,547.255554 
	C439.055603,558.439697 398.650177,553.722107 359.099548,537.667419 
	C335.323059,528.015991 313.560974,514.956909 293.023804,499.681793 
	C289.206085,496.842224 287.080811,493.783112 287.631805,488.846161 
	C288.159027,484.122070 287.188660,479.288208 288.460449,473.126526 
	C322.732361,502.561615 360.345367,524.015442 404.554474,533.405457 
z"/>
<path fill="#000000" opacity="1.000000" stroke="none" 
	d="
M333.637054,319.560181 
	C359.286011,305.805786 385.998779,296.324493 414.601959,292.852661 
	C445.912292,289.052277 475.925995,294.871796 505.083282,306.095245 
	C530.482483,315.872101 553.466431,329.842651 574.964722,346.407745 
	C577.849121,348.630280 579.415344,351.089050 579.188354,354.836243 
	C578.896667,359.651184 578.969604,364.487701 578.825928,369.313141 
	C578.813721,369.726593 578.355286,370.126740 578.086914,370.560974 
	C575.727966,370.580505 574.577820,368.734467 573.106384,367.519684 
	C547.730957,346.571136 520.256958,329.364868 488.893250,318.609039 
	C450.125153,305.313995 411.814240,306.414215 373.547607,320.526855 
	C343.620819,331.563812 317.107697,348.168457 293.012390,368.866150 
	C291.804474,369.903717 290.876190,371.502136 287.992584,371.266113 
	C287.992584,364.651306 287.841919,357.947601 288.091003,351.258759 
	C288.159302,349.424072 290.300354,348.461884 291.720551,347.319672 
	C304.738190,336.849915 318.612640,327.671021 333.637054,319.560181 
z"/>
<path fill="#000000" opacity="1.000000" stroke="none" 
	d="
M256.374115,415.365112 
	C253.743546,417.665314 251.368637,419.715759 248.957458,421.797485 
	C249.294891,422.448578 249.404541,423.015289 249.746399,423.268799 
	C266.473999,435.670654 271.055145,452.883636 269.947693,472.694000 
	C269.391479,482.643433 269.790771,492.657440 270.019806,502.636261 
	C270.219238,511.325439 274.481018,516.060425 283.103821,516.536682 
	C287.801239,516.796204 289.330444,518.691345 288.997009,522.979675 
	C288.894073,524.304138 288.990845,525.644104 288.994568,526.976929 
	C289.020325,536.227478 288.849792,536.380127 279.823730,535.193787 
	C265.262817,533.280029 255.157623,525.098022 252.317703,512.737122 
	C251.802612,510.495209 251.706863,508.119934 251.696808,505.805054 
	C251.634537,491.477203 251.550186,477.148041 251.679962,462.821198 
	C251.762787,453.677155 248.178741,446.416229 241.382736,440.495483 
	C234.679916,434.655945 226.902039,430.425049 219.512085,425.610504 
	C218.031189,424.645721 216.203064,424.029816 215.537628,422.245575 
	C216.275009,420.037750 218.208618,419.559875 219.702332,418.615509 
	C227.300125,413.811981 235.177063,409.431000 242.004700,403.484009 
	C248.907471,397.471527 251.507584,389.960785 251.272034,380.830231 
	C250.876968,365.518005 250.544083,350.171326 251.751358,334.877228 
	C252.390671,326.778320 256.427643,320.420898 263.275665,315.938141 
	C269.866211,311.623932 277.190338,309.757599 284.976715,309.289948 
	C287.802795,309.120178 288.987854,310.372345 289.022186,313.028442 
	C289.045898,314.860779 289.038879,316.693512 289.041260,318.526062 
	C289.052185,326.860870 289.051605,326.860931 281.213837,328.610596 
	C273.508362,330.330750 269.453369,335.323639 269.383331,343.682373 
	C269.273132,356.843292 269.074493,370.013275 269.428650,383.165527 
	C269.768707,395.794342 265.263611,406.215546 256.374115,415.365112 
z"/>
<path fill="#000000" opacity="1.000000" stroke="none" 
	d="
M602.430664,405.401642 
	C598.288818,398.066193 596.945190,390.397064 596.866150,382.494659 
	C596.734497,369.339447 596.835388,356.182098 596.765747,343.026031 
	C596.716553,333.736938 592.660950,329.020020 583.500244,328.316376 
	C579.100464,327.978424 577.608337,326.045959 577.929504,321.995483 
	C578.008240,321.003021 577.935730,319.998016 577.922180,318.998901 
	C577.758423,306.911926 577.586487,308.090485 589.047607,310.169861 
	C607.213074,313.465637 615.275391,323.796997 615.282288,342.176422 
	C615.287292,355.332794 615.584656,368.497803 615.198669,381.642761 
	C614.890747,392.129120 619.220581,399.863464 627.282104,406.026398 
	C633.251099,410.589539 639.653992,414.470276 646.032288,418.402313 
	C647.692688,419.425873 649.690735,420.049927 650.746338,422.038147 
	C650.137390,424.478302 647.829163,425.026306 646.078064,426.111603 
	C638.721497,430.671173 631.188660,434.970459 624.706482,440.796326 
	C618.298340,446.555634 614.974548,453.527405 615.162292,462.379639 
	C615.451904,476.029236 615.272217,489.690094 615.201233,503.345734 
	C615.098999,523.011475 601.436584,536.024780 581.715698,535.519531 
	C578.873169,535.446655 577.761597,534.387024 577.829651,531.700256 
	C577.863342,530.369263 577.805237,529.036072 577.798523,527.703918 
	C577.752014,518.440735 577.752930,518.440857 586.233215,516.011963 
	C593.343018,513.975586 596.669189,509.685181 596.717102,502.166565 
	C596.798828,489.343689 596.838623,476.519897 596.788086,463.696960 
	C596.725769,447.881897 602.410706,434.832489 615.043518,425.034912 
	C615.955261,424.327759 616.974609,423.695892 617.422424,421.794281 
	C611.958618,417.241394 606.082275,412.538666 602.430664,405.401642 
z"/>
<path fill="#000000" opacity="1.000000" stroke="none" 
	d="
M353.040222,439.668518 
	C348.113281,410.029602 354.766144,384.054932 376.376770,363.278229 
	C399.707214,340.848236 427.718323,333.939240 458.533905,343.812592 
	C490.073547,353.917938 509.470886,376.178467 515.143188,408.888794 
	C523.143005,455.020966 490.839233,498.240723 444.747223,504.369904 
	C402.309998,510.013092 363.087219,482.483704 353.040222,439.668518 
M363.892761,455.615662 
	C376.632019,482.934662 408.119873,503.269684 441.151184,500.021088 
	C481.008423,496.101135 515.248779,458.652344 510.975433,415.166138 
	C506.691437,371.571747 466.721283,338.018616 420.676788,345.748260 
	C370.383514,354.191162 342.240295,408.720306 363.892761,455.615662 
z"/>
<path fill="#000000" opacity="1.000000" stroke="none" 
	d="
M374.328827,459.570129 
	C353.746033,425.255157 366.278748,385.385101 393.139923,366.784393 
	C435.225494,337.641083 494.760132,363.603638 501.187927,414.003326 
	C505.333405,446.507446 486.801575,477.014191 456.069458,488.276428 
	C425.763397,499.382507 392.715210,487.872345 374.328827,459.570129 
M481.933563,440.350372 
	C488.026520,420.602844 484.737488,402.592712 470.644165,387.419006 
	C456.911133,372.633209 439.311951,367.885864 419.980286,372.623718 
	C397.008820,378.253632 377.992706,399.728027 381.144653,430.652069 
	C383.808960,456.792053 411.514954,479.022186 437.520050,475.357117 
	C458.847137,472.351349 473.668701,461.154083 481.933563,440.350372 
z"/>
<path fill="#000000" opacity="1.000000" stroke="none" 
	d="
M404.856659,442.016724 
	C396.725403,428.914825 397.430603,412.945892 406.410278,402.044128 
	C415.741699,390.715332 430.939850,386.707031 444.832458,391.910919 
	C458.416779,396.999298 467.094360,409.839081 466.140198,424.728851 
	C465.230774,438.920868 458.043335,449.360657 444.705627,454.594635 
	C431.553741,459.755676 419.534241,457.156525 409.316986,447.210114 
	C407.773468,445.707489 406.469452,443.958832 404.856659,442.016724 
M437.338562,427.848022 
	C440.124268,424.621185 441.477570,421.020996 437.997467,417.700684 
	C435.377289,415.200836 431.563995,414.919556 428.805023,417.223450 
	C425.988922,419.575043 424.917908,423.306824 427.181885,426.675354 
	C429.583405,430.248505 433.032410,430.806732 437.338562,427.848022 
z"/>
</svg>